<mxfile host="app.diagrams.net" modified="2023-02-03T13:19:50.649Z" agent="5.0 (Macintosh)" etag="j3v65JvEXq70X57Kj2ou" version="20.8.13" type="github">
  <diagram name="Страница 1" id="JnXb-AYTqO0_0xDSVQaJ">
    <mxGraphModel dx="1427" dy="669" grid="1" gridSize="10" guides="1" tooltips="1" connect="1" arrows="1" fold="1" page="1" pageScale="1" pageWidth="827" pageHeight="1169" math="0" shadow="0">
      <root>
        <mxCell id="0" />
        <mxCell id="1" parent="0" />
        <mxCell id="aQHuTdxhKVAW3w7uhjSu-1" value="" style="endArrow=none;html=1;rounded=0;strokeWidth=2;fontFamily=Times New Roman;fontSize=14;" edge="1" parent="1" target="aQHuTdxhKVAW3w7uhjSu-3">
          <mxGeometry width="50" height="50" relative="1" as="geometry">
            <mxPoint x="440" y="680" as="sourcePoint" />
            <mxPoint x="440" y="90" as="targetPoint" />
          </mxGeometry>
        </mxCell>
        <mxCell id="aQHuTdxhKVAW3w7uhjSu-2" value="" style="endArrow=none;html=1;rounded=0;strokeWidth=2;fontFamily=Times New Roman;fontSize=14;entryX=0.5;entryY=1;entryDx=0;entryDy=0;" edge="1" parent="1" target="aQHuTdxhKVAW3w7uhjSu-4">
          <mxGeometry width="50" height="50" relative="1" as="geometry">
            <mxPoint x="120" y="680" as="sourcePoint" />
            <mxPoint x="120" y="90" as="targetPoint" />
            <Array as="points">
              <mxPoint x="120" y="270" />
            </Array>
          </mxGeometry>
        </mxCell>
        <mxCell id="aQHuTdxhKVAW3w7uhjSu-3" value="SMSC" style="rounded=0;whiteSpace=wrap;html=1;fontFamily=Times New Roman;fontSize=14;" vertex="1" parent="1">
          <mxGeometry x="400" y="50" width="80" height="40" as="geometry" />
        </mxCell>
        <mxCell id="aQHuTdxhKVAW3w7uhjSu-4" value="ESME" style="rounded=0;whiteSpace=wrap;html=1;fontFamily=Times New Roman;fontSize=14;" vertex="1" parent="1">
          <mxGeometry x="80" y="50" width="80" height="40" as="geometry" />
        </mxCell>
        <mxCell id="aQHuTdxhKVAW3w7uhjSu-5" value="&amp;nbsp;bind_transmitter_resp(1)&amp;nbsp; " style="endArrow=classic;html=1;rounded=0;strokeWidth=2;fontFamily=Times New Roman;fontSize=14;" edge="1" parent="1">
          <mxGeometry width="50" height="50" relative="1" as="geometry">
            <mxPoint x="440" y="160" as="sourcePoint" />
            <mxPoint x="120" y="160" as="targetPoint" />
          </mxGeometry>
        </mxCell>
        <mxCell id="aQHuTdxhKVAW3w7uhjSu-6" value="&amp;nbsp;submit_sm(2)&amp;nbsp; " style="endArrow=classic;html=1;rounded=0;strokeWidth=2;fontFamily=Times New Roman;fontSize=14;" edge="1" parent="1">
          <mxGeometry width="50" height="50" relative="1" as="geometry">
            <mxPoint x="120" y="200" as="sourcePoint" />
            <mxPoint x="440" y="200" as="targetPoint" />
          </mxGeometry>
        </mxCell>
        <mxCell id="aQHuTdxhKVAW3w7uhjSu-7" value="" style="endArrow=classic;html=1;rounded=0;strokeWidth=2;fontFamily=Times New Roman;fontSize=14;" edge="1" parent="1">
          <mxGeometry width="50" height="50" relative="1" as="geometry">
            <mxPoint x="440" y="240" as="sourcePoint" />
            <mxPoint x="120" y="240" as="targetPoint" />
          </mxGeometry>
        </mxCell>
        <mxCell id="aQHuTdxhKVAW3w7uhjSu-8" value="&lt;div&gt;&amp;nbsp; submit_sm_resp(2)&amp;nbsp; &lt;/div&gt;" style="edgeLabel;html=1;align=center;verticalAlign=middle;resizable=0;points=[];fontSize=14;fontFamily=Times New Roman;" vertex="1" connectable="0" parent="aQHuTdxhKVAW3w7uhjSu-7">
          <mxGeometry x="0.0625" relative="1" as="geometry">
            <mxPoint as="offset" />
          </mxGeometry>
        </mxCell>
        <mxCell id="aQHuTdxhKVAW3w7uhjSu-9" value="" style="endArrow=classic;html=1;rounded=0;strokeWidth=2;fontFamily=Times New Roman;fontSize=14;" edge="1" parent="1">
          <mxGeometry width="50" height="50" relative="1" as="geometry">
            <mxPoint x="440" y="640" as="sourcePoint" />
            <mxPoint x="120" y="640" as="targetPoint" />
          </mxGeometry>
        </mxCell>
        <mxCell id="aQHuTdxhKVAW3w7uhjSu-10" value="&amp;nbsp;unbind_resp&amp;nbsp; " style="edgeLabel;html=1;align=center;verticalAlign=middle;resizable=0;points=[];fontSize=14;fontFamily=Times New Roman;" vertex="1" connectable="0" parent="aQHuTdxhKVAW3w7uhjSu-9">
          <mxGeometry x="0.0625" relative="1" as="geometry">
            <mxPoint as="offset" />
          </mxGeometry>
        </mxCell>
        <mxCell id="aQHuTdxhKVAW3w7uhjSu-11" value="&amp;nbsp;unbind&amp;nbsp; " style="endArrow=classic;html=1;rounded=0;strokeWidth=2;fontFamily=Times New Roman;fontSize=14;" edge="1" parent="1">
          <mxGeometry x="0.0188" width="50" height="50" relative="1" as="geometry">
            <mxPoint x="120" y="600" as="sourcePoint" />
            <mxPoint x="440" y="600" as="targetPoint" />
            <mxPoint as="offset" />
          </mxGeometry>
        </mxCell>
        <mxCell id="aQHuTdxhKVAW3w7uhjSu-12" value="&lt;div&gt;&amp;nbsp;bind_transmitter(1)&amp;nbsp; &lt;br&gt;&lt;/div&gt;" style="endArrow=classic;html=1;rounded=0;strokeWidth=2;fontFamily=Times New Roman;fontSize=14;" edge="1" parent="1">
          <mxGeometry width="50" height="50" relative="1" as="geometry">
            <mxPoint x="120" y="120" as="sourcePoint" />
            <mxPoint x="440" y="120" as="targetPoint" />
          </mxGeometry>
        </mxCell>
        <mxCell id="aQHuTdxhKVAW3w7uhjSu-13" value="&amp;nbsp;submit_sm(6)&amp;nbsp; " style="endArrow=classic;html=1;rounded=0;strokeWidth=2;fontFamily=Times New Roman;fontSize=14;" edge="1" parent="1">
          <mxGeometry width="50" height="50" relative="1" as="geometry">
            <mxPoint x="120" y="400" as="sourcePoint" />
            <mxPoint x="440" y="400" as="targetPoint" />
          </mxGeometry>
        </mxCell>
        <mxCell id="aQHuTdxhKVAW3w7uhjSu-14" value="&amp;nbsp;query_sm(5)&amp;nbsp; " style="endArrow=classic;html=1;rounded=0;strokeWidth=2;fontFamily=Times New Roman;fontSize=14;" edge="1" parent="1">
          <mxGeometry width="50" height="50" relative="1" as="geometry">
            <mxPoint x="120" y="360" as="sourcePoint" />
            <mxPoint x="440" y="360" as="targetPoint" />
          </mxGeometry>
        </mxCell>
        <mxCell id="aQHuTdxhKVAW3w7uhjSu-15" value="&amp;nbsp;submit_sm(4)&amp;nbsp; " style="endArrow=classic;html=1;rounded=0;strokeWidth=2;fontFamily=Times New Roman;fontSize=14;" edge="1" parent="1">
          <mxGeometry width="50" height="50" relative="1" as="geometry">
            <mxPoint x="120" y="320" as="sourcePoint" />
            <mxPoint x="440" y="320" as="targetPoint" />
          </mxGeometry>
        </mxCell>
        <mxCell id="aQHuTdxhKVAW3w7uhjSu-16" value="&amp;nbsp;submit_sm(3)&amp;nbsp; " style="endArrow=classic;html=1;rounded=0;strokeWidth=2;fontFamily=Times New Roman;fontSize=14;" edge="1" parent="1">
          <mxGeometry width="50" height="50" relative="1" as="geometry">
            <mxPoint x="120" y="280" as="sourcePoint" />
            <mxPoint x="440" y="280" as="targetPoint" />
          </mxGeometry>
        </mxCell>
        <mxCell id="aQHuTdxhKVAW3w7uhjSu-17" value="" style="endArrow=classic;html=1;rounded=0;strokeWidth=2;fontFamily=Times New Roman;fontSize=14;" edge="1" parent="1">
          <mxGeometry width="50" height="50" relative="1" as="geometry">
            <mxPoint x="440" y="560" as="sourcePoint" />
            <mxPoint x="120" y="560" as="targetPoint" />
          </mxGeometry>
        </mxCell>
        <mxCell id="aQHuTdxhKVAW3w7uhjSu-18" value="&lt;div&gt;&amp;nbsp; submit_sm_resp(6)&amp;nbsp; &lt;/div&gt;" style="edgeLabel;html=1;align=center;verticalAlign=middle;resizable=0;points=[];fontSize=14;fontFamily=Times New Roman;" vertex="1" connectable="0" parent="aQHuTdxhKVAW3w7uhjSu-17">
          <mxGeometry x="0.0625" relative="1" as="geometry">
            <mxPoint as="offset" />
          </mxGeometry>
        </mxCell>
        <mxCell id="aQHuTdxhKVAW3w7uhjSu-19" value="" style="endArrow=classic;html=1;rounded=0;strokeWidth=2;fontFamily=Times New Roman;fontSize=14;" edge="1" parent="1">
          <mxGeometry width="50" height="50" relative="1" as="geometry">
            <mxPoint x="440" y="520" as="sourcePoint" />
            <mxPoint x="120" y="520" as="targetPoint" />
          </mxGeometry>
        </mxCell>
        <mxCell id="aQHuTdxhKVAW3w7uhjSu-20" value="&lt;div&gt;&amp;nbsp; query_sm_resp(5)&amp;nbsp; &lt;/div&gt;" style="edgeLabel;html=1;align=center;verticalAlign=middle;resizable=0;points=[];fontSize=14;fontFamily=Times New Roman;" vertex="1" connectable="0" parent="aQHuTdxhKVAW3w7uhjSu-19">
          <mxGeometry x="0.0625" relative="1" as="geometry">
            <mxPoint as="offset" />
          </mxGeometry>
        </mxCell>
        <mxCell id="aQHuTdxhKVAW3w7uhjSu-21" value="" style="endArrow=classic;html=1;rounded=0;strokeWidth=2;fontFamily=Times New Roman;fontSize=14;" edge="1" parent="1">
          <mxGeometry width="50" height="50" relative="1" as="geometry">
            <mxPoint x="440" y="480" as="sourcePoint" />
            <mxPoint x="120" y="480" as="targetPoint" />
          </mxGeometry>
        </mxCell>
        <mxCell id="aQHuTdxhKVAW3w7uhjSu-22" value="&lt;div&gt;&amp;nbsp; submit_sm_resp(4)&amp;nbsp; &lt;/div&gt;" style="edgeLabel;html=1;align=center;verticalAlign=middle;resizable=0;points=[];fontSize=14;fontFamily=Times New Roman;" vertex="1" connectable="0" parent="aQHuTdxhKVAW3w7uhjSu-21">
          <mxGeometry x="0.0625" relative="1" as="geometry">
            <mxPoint as="offset" />
          </mxGeometry>
        </mxCell>
        <mxCell id="aQHuTdxhKVAW3w7uhjSu-23" value="" style="endArrow=classic;html=1;rounded=0;strokeWidth=2;fontFamily=Times New Roman;fontSize=14;" edge="1" parent="1">
          <mxGeometry width="50" height="50" relative="1" as="geometry">
            <mxPoint x="440" y="440" as="sourcePoint" />
            <mxPoint x="120" y="440" as="targetPoint" />
          </mxGeometry>
        </mxCell>
        <mxCell id="aQHuTdxhKVAW3w7uhjSu-24" value="&lt;div&gt;&amp;nbsp; submit_sm_resp(3)&amp;nbsp; &lt;/div&gt;" style="edgeLabel;html=1;align=center;verticalAlign=middle;resizable=0;points=[];fontSize=14;fontFamily=Times New Roman;" vertex="1" connectable="0" parent="aQHuTdxhKVAW3w7uhjSu-23">
          <mxGeometry x="0.0625" relative="1" as="geometry">
            <mxPoint as="offset" />
          </mxGeometry>
        </mxCell>
      </root>
    </mxGraphModel>
  </diagram>
</mxfile>
